<svg xmlns="http://www.w3.org/2000/svg" width="235" height="225" fill="none" viewBox="0 0 235 225">
  <g clip-path="url(#a)">
    <rect width="50" height="225" fill="#D60404" rx="20"/>
    <rect width="50" height="135" x="135" fill="#D60404" rx="20" transform="rotate(90 135 0)"/>
    <rect width="50" height="50" x="110" y="60" fill="#D60404" rx="20" transform="rotate(90 110 60)"/>
    <rect width="42" height="42" x="171" y="64" stroke="#D60404" stroke-width="8" rx="16" transform="rotate(90 171 64)"/>
    <rect width="42" height="42" x="171" y="121" stroke="#F2F2F2" stroke-width="8" rx="16" transform="rotate(90 171 121)"/>
    <rect width="42" height="42" x="106" y="121" stroke="#D60404" stroke-width="8" rx="16" transform="rotate(90 106 121)"/>
    <rect width="50" height="225" x="185" fill="#F2F2F2" rx="20"/>
    <rect width="50" height="85" x="235" fill="#F2F2F2" rx="20" transform="rotate(90 235 0)"/>
    <rect width="50" height="175" x="235" y="175" fill="#F2F2F2" rx="20" transform="rotate(90 235 175)"/>
  </g>
  <defs>
    <clipPath id="a">
      <path fill="#fff" d="M0 0h235v225H0z"/>
    </clipPath>
  </defs>
</svg>
